<svg width="60" height="60" viewBox="0 0 60 60" fill="none" xmlns="http://www.w3.org/2000/svg">
<path opacity="0.21" fill-rule="evenodd" clip-rule="evenodd" d="M0 29.9999V36.9999C0 49.7024 10.2975 59.9999 23 59.9999H30H37C49.7025 59.9999 60 49.7024 60 36.9999V29.9999V22.9999C60 10.2973 49.7025 -0.00012207 37 -0.00012207H30H23C10.2975 -0.00012207 0 10.2973 0 22.9999V29.9999Z" fill="#28B30E"/>
<path fill-rule="evenodd" clip-rule="evenodd" d="M15 24.3164L27.9005 31.7645C28.0394 31.8447 28.1851 31.9026 28.3333 31.9394V46.3846L15.9201 39.0384C15.3498 38.7009 15 38.0874 15 37.4248V24.3164ZM45 24.1183V37.4248C45 38.0874 44.6502 38.7009 44.0799 39.0384L31.6667 46.3846V31.8128C31.6969 31.7977 31.7269 31.7816 31.7566 31.7645L45 24.1183Z" fill="#28B30E"/>
<path opacity="0.499209" fill-rule="evenodd" clip-rule="evenodd" d="M15.4052 20.7013C15.5628 20.5023 15.7617 20.3341 15.9936 20.2106L29.1186 13.22C29.6695 12.9265 30.3305 12.9265 30.8814 13.22L44.0064 20.2106C44.1852 20.3058 44.3443 20.4276 44.48 20.5695L30.0899 28.8777C29.9953 28.9323 29.908 28.9948 29.8285 29.0639C29.749 28.9948 29.6618 28.9323 29.5672 28.8777L15.4052 20.7013Z" fill="#28B30E"/>
</svg>
